{
	"asset":{
		"generator":"Khronos glTF Blender I/O v5.0.21",
		"version":"2.0"
	},
	"extensionsUsed":[
		"KHR_materials_transmission"
	],
	"scene":0,
	"scenes":[
		{
			"name":"Scene",
			"nodes":[
				15
			]
		}
	],
	"nodes":[
		{
			"mesh":0,
			"name":"Object_10"
		},
		{
			"mesh":1,
			"name":"Object_11"
		},
		{
			"mesh":2,
			"name":"Object_6"
		},
		{
			"mesh":3,
			"name":"Object_7"
		},
		{
			"mesh":4,
			"name":"Object_8"
		},
		{
			"mesh":5,
			"name":"Object_9"
		},
		{
			"children":[
				0,
				1,
				2,
				3,
				4,
				5
			],
			"name":"base_1"
		},
		{
			"mesh":6,
			"name":"Object_15"
		},
		{
			"children":[
				7
			],
			"name":"helice 1_3"
		},
		{
			"mesh":7,
			"name":"Object_13"
		},
		{
			"children":[
				9
			],
			"name":"helice 2_2"
		},
		{
			"mesh":8,
			"name":"Object_4"
		},
		{
			"children":[
				11
			],
			"name":"vidrio_0"
		},
		{
			"children":[
				6,
				8,
				10,
				12
			],
			"name":"GLTF_SceneRootNode"
		},
		{
			"children":[
				13
			],
			"name":"root"
		},
		{
			"children":[
				14
			],
			"name":"Sketchfab_model"
		}
	],
	"materials":[
		{
			"doubleSided":true,
			"name":"computadora",
			"pbrMetallicRoughness":{
				"baseColorTexture":{
					"index":0
				},
				"metallicFactor":0
			}
		},
		{
			"doubleSided":true,
			"name":"controles",
			"pbrMetallicRoughness":{
				"baseColorTexture":{
					"index":1
				},
				"metallicFactor":0
			}
		},
		{
			"doubleSided":true,
			"name":"base",
			"pbrMetallicRoughness":{
				"baseColorTexture":{
					"index":2
				},
				"metallicFactor":0
			}
		},
		{
			"doubleSided":true,
			"name":"cargador",
			"pbrMetallicRoughness":{
				"baseColorTexture":{
					"index":3
				},
				"metallicFactor":0
			}
		},
		{
			"doubleSided":true,
			"name":"armas",
			"pbrMetallicRoughness":{
				"baseColorTexture":{
					"index":4
				},
				"metallicFactor":0
			}
		},
		{
			"doubleSided":true,
			"name":"acces",
			"pbrMetallicRoughness":{
				"baseColorTexture":{
					"index":5
				},
				"metallicFactor":0
			}
		},
		{
			"doubleSided":true,
			"name":"helice_1",
			"pbrMetallicRoughness":{
				"baseColorTexture":{
					"index":6
				},
				"metallicFactor":0
			}
		},
		{
			"doubleSided":true,
			"name":"helice_2",
			"pbrMetallicRoughness":{
				"baseColorTexture":{
					"index":7
				},
				"metallicFactor":0
			}
		},
		{
			"alphaMode":"BLEND",
			"doubleSided":true,
			"extensions":{
				"KHR_materials_transmission":{
					"transmissionFactor":1
				}
			},
			"name":"vidrio",
			"pbrMetallicRoughness":{
				"baseColorFactor":[
					0.800000011920929,
					0.800000011920929,
					0.800000011920929,
					0.25
				],
				"metallicFactor":0,
				"roughnessFactor":0
			}
		}
	],
	"meshes":[
		{
			"name":"Object_5",
			"primitives":[
				{
					"attributes":{
						"POSITION":0,
						"NORMAL":1,
						"TEXCOORD_0":2
					},
					"indices":3,
					"material":0
				}
			]
		},
		{
			"name":"Object_6",
			"primitives":[
				{
					"attributes":{
						"POSITION":4,
						"NORMAL":5,
						"TEXCOORD_0":6
					},
					"indices":7,
					"material":1
				}
			]
		},
		{
			"name":"Object_1",
			"primitives":[
				{
					"attributes":{
						"POSITION":8,
						"NORMAL":9,
						"TEXCOORD_0":10
					},
					"indices":11,
					"material":2
				}
			]
		},
		{
			"name":"Object_2",
			"primitives":[
				{
					"attributes":{
						"POSITION":12,
						"NORMAL":13,
						"TEXCOORD_0":14
					},
					"indices":15,
					"material":3
				}
			]
		},
		{
			"name":"Object_3",
			"primitives":[
				{
					"attributes":{
						"POSITION":16,
						"NORMAL":17,
						"TEXCOORD_0":18
					},
					"indices":19,
					"material":4
				}
			]
		},
		{
			"name":"Object_4",
			"primitives":[
				{
					"attributes":{
						"POSITION":20,
						"NORMAL":21,
						"TEXCOORD_0":22
					},
					"indices":23,
					"material":5
				}
			]
		},
		{
			"name":"Object_8",
			"primitives":[
				{
					"attributes":{
						"POSITION":24,
						"NORMAL":25,
						"TEXCOORD_0":26
					},
					"indices":27,
					"material":6
				}
			]
		},
		{
			"name":"Object_7",
			"primitives":[
				{
					"attributes":{
						"POSITION":28,
						"NORMAL":29,
						"TEXCOORD_0":30
					},
					"indices":31,
					"material":7
				}
			]
		},
		{
			"name":"Object_0",
			"primitives":[
				{
					"attributes":{
						"POSITION":32,
						"NORMAL":33,
						"TEXCOORD_0":34
					},
					"indices":35,
					"material":8
				}
			]
		}
	],
	"textures":[
		{
			"sampler":0,
			"source":0
		},
		{
			"sampler":0,
			"source":0
		},
		{
			"sampler":0,
			"source":0
		},
		{
			"sampler":0,
			"source":0
		},
		{
			"sampler":0,
			"source":0
		},
		{
			"sampler":0,
			"source":0
		},
		{
			"sampler":0,
			"source":0
		},
		{
			"sampler":0,
			"source":0
		}
	],
	"images":[
		{
			"mimeType":"image/png",
			"name":"base_baseColor",
			"uri":"base_baseColor.png"
		}
	],
	"accessors":[
		{
			"bufferView":0,
			"componentType":5126,
			"count":13766,
			"max":[
				0.4332605302333832,
				1.7675962448120117,
				0.21500052511692047
			],
			"min":[
				-0.5141721963882446,
				1.0904783010482788,
				-0.9840837121009827
			],
			"type":"VEC3"
		},
		{
			"bufferView":1,
			"componentType":5126,
			"count":13766,
			"type":"VEC3"
		},
		{
			"bufferView":2,
			"componentType":5126,
			"count":13766,
			"type":"VEC2"
		},
		{
			"bufferView":3,
			"componentType":5123,
			"count":18810,
			"type":"SCALAR"
		},
		{
			"bufferView":4,
			"componentType":5126,
			"count":6632,
			"max":[
				0.5890752077102661,
				1.6055965423583984,
				-0.12708346545696259
			],
			"min":[
				-0.6599590182304382,
				0.7150012254714966,
				-1.0278584957122803
			],
			"type":"VEC3"
		},
		{
			"bufferView":5,
			"componentType":5126,
			"count":6632,
			"type":"VEC3"
		},
		{
			"bufferView":6,
			"componentType":5126,
			"count":6632,
			"type":"VEC2"
		},
		{
			"bufferView":7,
			"componentType":5123,
			"count":9603,
			"type":"SCALAR"
		},
		{
			"bufferView":8,
			"componentType":5126,
			"count":7028,
			"max":[
				1.1191343069076538,
				2.9856679439544678,
				7.204603672027588
			],
			"min":[
				-1.1912647485733032,
				-0.2996245324611664,
				-1.4851441383361816
			],
			"type":"VEC3"
		},
		{
			"bufferView":9,
			"componentType":5126,
			"count":7028,
			"type":"VEC3"
		},
		{
			"bufferView":10,
			"componentType":5126,
			"count":7028,
			"type":"VEC2"
		},
		{
			"bufferView":11,
			"componentType":5123,
			"count":10770,
			"type":"SCALAR"
		},
		{
			"bufferView":12,
			"componentType":5126,
			"count":1744,
			"max":[
				1.7146484851837158,
				1.6312158107757568,
				1.869067668914795
			],
			"min":[
				-1.7955601215362549,
				0.4534229636192322,
				-0.1725631058216095
			],
			"type":"VEC3"
		},
		{
			"bufferView":13,
			"componentType":5126,
			"count":1744,
			"type":"VEC3"
		},
		{
			"bufferView":14,
			"componentType":5126,
			"count":1744,
			"type":"VEC2"
		},
		{
			"bufferView":15,
			"componentType":5123,
			"count":2604,
			"type":"SCALAR"
		},
		{
			"bufferView":16,
			"componentType":5126,
			"count":8063,
			"max":[
				1.7817836999893188,
				0.6321038603782654,
				1.8130195140838623
			],
			"min":[
				-1.8626948595046997,
				0.07605575770139694,
				-0.22571370005607605
			],
			"type":"VEC3"
		},
		{
			"bufferView":17,
			"componentType":5126,
			"count":8063,
			"type":"VEC3"
		},
		{
			"bufferView":18,
			"componentType":5126,
			"count":8063,
			"type":"VEC2"
		},
		{
			"bufferView":19,
			"componentType":5123,
			"count":13686,
			"type":"SCALAR"
		},
		{
			"bufferView":20,
			"componentType":5126,
			"count":4876,
			"max":[
				0.7808346748352051,
				2.5098414421081543,
				1.3582497835159302
			],
			"min":[
				-0.8676090836524963,
				0.6450268030166626,
				-1.4372215270996094
			],
			"type":"VEC3"
		},
		{
			"bufferView":21,
			"componentType":5126,
			"count":4876,
			"type":"VEC3"
		},
		{
			"bufferView":22,
			"componentType":5126,
			"count":4876,
			"type":"VEC2"
		},
		{
			"bufferView":23,
			"componentType":5123,
			"count":7386,
			"type":"SCALAR"
		},
		{
			"bufferView":24,
			"componentType":5126,
			"count":10026,
			"max":[
				4.172638416290283,
				2.9180870056152344,
				5.765401363372803
			],
			"min":[
				-4.243170738220215,
				2.243939161300659,
				-3.7975244522094727
			],
			"type":"VEC3"
		},
		{
			"bufferView":25,
			"componentType":5126,
			"count":10026,
			"type":"VEC3"
		},
		{
			"bufferView":26,
			"componentType":5126,
			"count":10026,
			"type":"VEC2"
		},
		{
			"bufferView":27,
			"componentType":5123,
			"count":17022,
			"type":"SCALAR"
		},
		{
			"bufferView":28,
			"componentType":5126,
			"count":1074,
			"max":[
				-0.23981505632400513,
				2.3090052604675293,
				7.035778522491455
			],
			"min":[
				-0.41456738114356995,
				0.7736772894859314,
				6.172551155090332
			],
			"type":"VEC3"
		},
		{
			"bufferView":29,
			"componentType":5126,
			"count":1074,
			"type":"VEC3"
		},
		{
			"bufferView":30,
			"componentType":5126,
			"count":1074,
			"type":"VEC2"
		},
		{
			"bufferView":31,
			"componentType":5123,
			"count":1584,
			"type":"SCALAR"
		},
		{
			"bufferView":32,
			"componentType":5126,
			"count":210,
			"max":[
				0.6911814212799072,
				2.254669427871704,
				0.6458675861358643
			],
			"min":[
				-0.7720930576324463,
				0.5763629674911499,
				-1.3316700458526611
			],
			"type":"VEC3"
		},
		{
			"bufferView":33,
			"componentType":5126,
			"count":210,
			"type":"VEC3"
		},
		{
			"bufferView":34,
			"componentType":5126,
			"count":210,
			"type":"VEC2"
		},
		{
			"bufferView":35,
			"componentType":5123,
			"count":876,
			"type":"SCALAR"
		}
	],
	"bufferViews":[
		{
			"buffer":0,
			"byteLength":165192,
			"byteOffset":0,
			"target":34962
		},
		{
			"buffer":0,
			"byteLength":165192,
			"byteOffset":165192,
			"target":34962
		},
		{
			"buffer":0,
			"byteLength":110128,
			"byteOffset":330384,
			"target":34962
		},
		{
			"buffer":0,
			"byteLength":37620,
			"byteOffset":440512,
			"target":34963
		},
		{
			"buffer":0,
			"byteLength":79584,
			"byteOffset":478132,
			"target":34962
		},
		{
			"buffer":0,
			"byteLength":79584,
			"byteOffset":557716,
			"target":34962
		},
		{
			"buffer":0,
			"byteLength":53056,
			"byteOffset":637300,
			"target":34962
		},
		{
			"buffer":0,
			"byteLength":19206,
			"byteOffset":690356,
			"target":34963
		},
		{
			"buffer":0,
			"byteLength":84336,
			"byteOffset":709564,
			"target":34962
		},
		{
			"buffer":0,
			"byteLength":84336,
			"byteOffset":793900,
			"target":34962
		},
		{
			"buffer":0,
			"byteLength":56224,
			"byteOffset":878236,
			"target":34962
		},
		{
			"buffer":0,
			"byteLength":21540,
			"byteOffset":934460,
			"target":34963
		},
		{
			"buffer":0,
			"byteLength":20928,
			"byteOffset":956000,
			"target":34962
		},
		{
			"buffer":0,
			"byteLength":20928,
			"byteOffset":976928,
			"target":34962
		},
		{
			"buffer":0,
			"byteLength":13952,
			"byteOffset":997856,
			"target":34962
		},
		{
			"buffer":0,
			"byteLength":5208,
			"byteOffset":1011808,
			"target":34963
		},
		{
			"buffer":0,
			"byteLength":96756,
			"byteOffset":1017016,
			"target":34962
		},
		{
			"buffer":0,
			"byteLength":96756,
			"byteOffset":1113772,
			"target":34962
		},
		{
			"buffer":0,
			"byteLength":64504,
			"byteOffset":1210528,
			"target":34962
		},
		{
			"buffer":0,
			"byteLength":27372,
			"byteOffset":1275032,
			"target":34963
		},
		{
			"buffer":0,
			"byteLength":58512,
			"byteOffset":1302404,
			"target":34962
		},
		{
			"buffer":0,
			"byteLength":58512,
			"byteOffset":1360916,
			"target":34962
		},
		{
			"buffer":0,
			"byteLength":39008,
			"byteOffset":1419428,
			"target":34962
		},
		{
			"buffer":0,
			"byteLength":14772,
			"byteOffset":1458436,
			"target":34963
		},
		{
			"buffer":0,
			"byteLength":120312,
			"byteOffset":1473208,
			"target":34962
		},
		{
			"buffer":0,
			"byteLength":120312,
			"byteOffset":1593520,
			"target":34962
		},
		{
			"buffer":0,
			"byteLength":80208,
			"byteOffset":1713832,
			"target":34962
		},
		{
			"buffer":0,
			"byteLength":34044,
			"byteOffset":1794040,
			"target":34963
		},
		{
			"buffer":0,
			"byteLength":12888,
			"byteOffset":1828084,
			"target":34962
		},
		{
			"buffer":0,
			"byteLength":12888,
			"byteOffset":1840972,
			"target":34962
		},
		{
			"buffer":0,
			"byteLength":8592,
			"byteOffset":1853860,
			"target":34962
		},
		{
			"buffer":0,
			"byteLength":3168,
			"byteOffset":1862452,
			"target":34963
		},
		{
			"buffer":0,
			"byteLength":2520,
			"byteOffset":1865620,
			"target":34962
		},
		{
			"buffer":0,
			"byteLength":2520,
			"byteOffset":1868140,
			"target":34962
		},
		{
			"buffer":0,
			"byteLength":1680,
			"byteOffset":1870660,
			"target":34962
		},
		{
			"buffer":0,
			"byteLength":1752,
			"byteOffset":1872340,
			"target":34963
		}
	],
	"samplers":[
		{
			"magFilter":9729,
			"minFilter":9987
		}
	],
	"buffers":[
		{
			"byteLength":1874092,
			"uri":"scene.bin"
		}
	]
}
