{
	"asset":{
		"generator":"Khronos glTF Blender I/O v5.0.21",
		"version":"2.0"
	},
	"scene":0,
	"scenes":[
		{
			"name":"Scene",
			"nodes":[
				22
			]
		}
	],
	"nodes":[
		{
			"mesh":0,
			"name":"Sphere_Doors_0"
		},
		{
			"children":[
				0
			],
			"name":"Sphere.001"
		},
		{
			"mesh":1,
			"name":"Sphere_Bags_0"
		},
		{
			"children":[
				2
			],
			"name":"Sphere.002"
		},
		{
			"mesh":2,
			"name":"Sphere_Metal_0"
		},
		{
			"children":[
				4
			],
			"name":"Sphere.003"
		},
		{
			"mesh":3,
			"name":"Sphere_0_1_0"
		},
		{
			"children":[
				6
			],
			"name":"Sphere.004"
		},
		{
			"mesh":4,
			"name":"Sphere_0_2_0"
		},
		{
			"children":[
				8
			],
			"name":"Sphere.005"
		},
		{
			"mesh":5,
			"name":"Sphere_0_4_0"
		},
		{
			"children":[
				10
			],
			"name":"Sphere.006"
		},
		{
			"mesh":6,
			"name":"Sphere_Panel_0"
		},
		{
			"children":[
				12
			],
			"name":"Sphere.007"
		},
		{
			"mesh":7,
			"name":"Sphere_0_5_0"
		},
		{
			"children":[
				14
			],
			"name":"Sphere.008"
		},
		{
			"mesh":8,
			"name":"Sphere_Main_0"
		},
		{
			"children":[
				1,
				3,
				5,
				7,
				9,
				11,
				13,
				15,
				16
			],
			"name":"Sphere"
		},
		{
			"mesh":9,
			"name":"Sphere.001_Glass_0"
		},
		{
			"children":[
				18
			],
			"name":"Sphere.009"
		},
		{
			"children":[
				17,
				19
			],
			"name":"RootNode"
		},
		{
			"children":[
				20
			],
			"name":"fbeafb21f67d40b6b60e98360fca8188.fbx"
		},
		{
			"children":[
				21
			],
			"name":"Sketchfab_model"
		}
	],
	"materials":[
		{
			"doubleSided":true,
			"name":"Doors",
			"normalTexture":{
				"index":0
			},
			"pbrMetallicRoughness":{
				"baseColorTexture":{
					"index":1
				},
				"metallicRoughnessTexture":{
					"index":2
				}
			}
		},
		{
			"doubleSided":true,
			"name":"Bags",
			"normalTexture":{
				"index":3
			},
			"pbrMetallicRoughness":{
				"baseColorTexture":{
					"index":4
				},
				"metallicRoughnessTexture":{
					"index":5
				}
			}
		},
		{
			"doubleSided":true,
			"name":"Metal",
			"normalTexture":{
				"index":6
			},
			"pbrMetallicRoughness":{
				"baseColorTexture":{
					"index":7
				},
				"metallicRoughnessTexture":{
					"index":8
				}
			}
		},
		{
			"doubleSided":true,
			"name":"material",
			"normalTexture":{
				"index":9
			},
			"pbrMetallicRoughness":{
				"baseColorTexture":{
					"index":10
				},
				"metallicRoughnessTexture":{
					"index":11
				}
			}
		},
		{
			"doubleSided":true,
			"name":"material_5",
			"normalTexture":{
				"index":12
			},
			"pbrMetallicRoughness":{
				"baseColorTexture":{
					"index":13
				},
				"metallicRoughnessTexture":{
					"index":14
				}
			}
		},
		{
			"doubleSided":true,
			"name":"material_6",
			"normalTexture":{
				"index":15
			},
			"pbrMetallicRoughness":{
				"baseColorTexture":{
					"index":16
				},
				"metallicRoughnessTexture":{
					"index":17
				}
			}
		},
		{
			"doubleSided":true,
			"name":"Panel",
			"normalTexture":{
				"index":18
			},
			"pbrMetallicRoughness":{
				"baseColorTexture":{
					"index":19
				},
				"metallicRoughnessTexture":{
					"index":20
				}
			}
		},
		{
			"doubleSided":true,
			"name":"material_8",
			"normalTexture":{
				"index":21
			},
			"pbrMetallicRoughness":{
				"baseColorTexture":{
					"index":22
				},
				"metallicRoughnessTexture":{
					"index":23
				}
			}
		},
		{
			"doubleSided":true,
			"name":"Main",
			"normalTexture":{
				"index":24
			},
			"pbrMetallicRoughness":{
				"baseColorTexture":{
					"index":25
				},
				"metallicRoughnessTexture":{
					"index":26
				}
			}
		},
		{
			"alphaMode":"BLEND",
			"doubleSided":true,
			"name":"Glass",
			"normalTexture":{
				"index":27
			},
			"pbrMetallicRoughness":{
				"baseColorFactor":[
					1,
					1,
					1,
					0.9841022491455078
				],
				"baseColorTexture":{
					"index":28
				},
				"metallicRoughnessTexture":{
					"index":29
				}
			}
		}
	],
	"meshes":[
		{
			"name":"Sphere_Doors_0",
			"primitives":[
				{
					"attributes":{
						"POSITION":0,
						"NORMAL":1,
						"TEXCOORD_0":2,
						"TEXCOORD_1":3,
						"TEXCOORD_2":4,
						"TEXCOORD_3":5,
						"TEXCOORD_4":6,
						"TEXCOORD_5":7,
						"TEXCOORD_6":8,
						"TEXCOORD_7":9
					},
					"indices":10,
					"material":0
				}
			]
		},
		{
			"name":"Sphere_Bags_0",
			"primitives":[
				{
					"attributes":{
						"POSITION":11,
						"NORMAL":12,
						"TEXCOORD_0":13,
						"TEXCOORD_1":14,
						"TEXCOORD_2":15,
						"TEXCOORD_3":16,
						"TEXCOORD_4":17,
						"TEXCOORD_5":18,
						"TEXCOORD_6":19,
						"TEXCOORD_7":20
					},
					"indices":21,
					"material":1
				}
			]
		},
		{
			"name":"Sphere_Metal_0",
			"primitives":[
				{
					"attributes":{
						"POSITION":22,
						"NORMAL":23,
						"TEXCOORD_0":24,
						"TEXCOORD_1":25,
						"TEXCOORD_2":26,
						"TEXCOORD_3":27,
						"TEXCOORD_4":28,
						"TEXCOORD_5":29,
						"TEXCOORD_6":30,
						"TEXCOORD_7":31
					},
					"indices":32,
					"material":2
				}
			]
		},
		{
			"name":"Sphere_0_1_0",
			"primitives":[
				{
					"attributes":{
						"POSITION":33,
						"NORMAL":34,
						"TEXCOORD_0":35,
						"TEXCOORD_1":36,
						"TEXCOORD_2":37,
						"TEXCOORD_3":38,
						"TEXCOORD_4":39,
						"TEXCOORD_5":40,
						"TEXCOORD_6":41,
						"TEXCOORD_7":42
					},
					"indices":43,
					"material":3
				}
			]
		},
		{
			"name":"Sphere_0_2_0",
			"primitives":[
				{
					"attributes":{
						"POSITION":44,
						"NORMAL":45,
						"TEXCOORD_0":46,
						"TEXCOORD_1":47,
						"TEXCOORD_2":48,
						"TEXCOORD_3":49,
						"TEXCOORD_4":50,
						"TEXCOORD_5":51,
						"TEXCOORD_6":52,
						"TEXCOORD_7":53
					},
					"indices":54,
					"material":4
				}
			]
		},
		{
			"name":"Sphere_0_4_0",
			"primitives":[
				{
					"attributes":{
						"POSITION":55,
						"NORMAL":56,
						"TEXCOORD_0":57,
						"TEXCOORD_1":58,
						"TEXCOORD_2":59,
						"TEXCOORD_3":60,
						"TEXCOORD_4":61,
						"TEXCOORD_5":62,
						"TEXCOORD_6":63,
						"TEXCOORD_7":64
					},
					"indices":65,
					"material":5
				}
			]
		},
		{
			"name":"Sphere_Panel_0",
			"primitives":[
				{
					"attributes":{
						"POSITION":66,
						"NORMAL":67,
						"TEXCOORD_0":68,
						"TEXCOORD_1":69,
						"TEXCOORD_2":70,
						"TEXCOORD_3":71,
						"TEXCOORD_4":72,
						"TEXCOORD_5":73,
						"TEXCOORD_6":74,
						"TEXCOORD_7":75
					},
					"indices":76,
					"material":6
				}
			]
		},
		{
			"name":"Sphere_0_5_0",
			"primitives":[
				{
					"attributes":{
						"POSITION":77,
						"NORMAL":78,
						"TEXCOORD_0":79,
						"TEXCOORD_1":80,
						"TEXCOORD_2":81,
						"TEXCOORD_3":82,
						"TEXCOORD_4":83,
						"TEXCOORD_5":84,
						"TEXCOORD_6":85,
						"TEXCOORD_7":86
					},
					"indices":87,
					"material":7
				}
			]
		},
		{
			"name":"Sphere_Main_0",
			"primitives":[
				{
					"attributes":{
						"POSITION":88,
						"NORMAL":89,
						"TEXCOORD_0":90,
						"TEXCOORD_1":91,
						"TEXCOORD_2":92,
						"TEXCOORD_3":93,
						"TEXCOORD_4":94,
						"TEXCOORD_5":95,
						"TEXCOORD_6":96,
						"TEXCOORD_7":97
					},
					"indices":98,
					"material":8
				}
			]
		},
		{
			"name":"Sphere.001_Glass_0",
			"primitives":[
				{
					"attributes":{
						"POSITION":99,
						"NORMAL":100,
						"TEXCOORD_0":101,
						"TEXCOORD_1":102,
						"TEXCOORD_2":103,
						"TEXCOORD_3":104,
						"TEXCOORD_4":105,
						"TEXCOORD_5":106,
						"TEXCOORD_6":107,
						"TEXCOORD_7":108
					},
					"indices":109,
					"material":9
				}
			]
		}
	],
	"textures":[
		{
			"sampler":0,
			"source":0
		},
		{
			"sampler":0,
			"source":1
		},
		{
			"sampler":0,
			"source":2
		},
		{
			"sampler":0,
			"source":3
		},
		{
			"sampler":0,
			"source":4
		},
		{
			"sampler":0,
			"source":5
		},
		{
			"sampler":0,
			"source":6
		},
		{
			"sampler":0,
			"source":7
		},
		{
			"sampler":0,
			"source":8
		},
		{
			"sampler":0,
			"source":9
		},
		{
			"sampler":0,
			"source":10
		},
		{
			"sampler":0,
			"source":11
		},
		{
			"sampler":0,
			"source":12
		},
		{
			"sampler":0,
			"source":13
		},
		{
			"sampler":0,
			"source":14
		},
		{
			"sampler":0,
			"source":15
		},
		{
			"sampler":0,
			"source":16
		},
		{
			"sampler":0,
			"source":17
		},
		{
			"sampler":0,
			"source":18
		},
		{
			"sampler":0,
			"source":19
		},
		{
			"sampler":0,
			"source":20
		},
		{
			"sampler":0,
			"source":21
		},
		{
			"sampler":0,
			"source":22
		},
		{
			"sampler":0,
			"source":23
		},
		{
			"sampler":0,
			"source":24
		},
		{
			"sampler":0,
			"source":25
		},
		{
			"sampler":0,
			"source":26
		},
		{
			"sampler":0,
			"source":27
		},
		{
			"sampler":0,
			"source":28
		},
		{
			"sampler":0,
			"source":29
		}
	],
	"images":[
		{
			"mimeType":"image/png",
			"name":"Doors_normal",
			"uri":"Doors_normal.png"
		},
		{
			"mimeType":"image/png",
			"name":"Doors_baseColor",
			"uri":"Doors_baseColor.png"
		},
		{
			"mimeType":"image/png",
			"name":"Doors_metallicRoughness",
			"uri":"Doors_metallicRoughness.png"
		},
		{
			"mimeType":"image/png",
			"name":"Bags_normal",
			"uri":"Bags_normal.png"
		},
		{
			"mimeType":"image/png",
			"name":"Bags_baseColor",
			"uri":"Bags_baseColor.png"
		},
		{
			"mimeType":"image/png",
			"name":"Bags_metallicRoughness",
			"uri":"Bags_metallicRoughness.png"
		},
		{
			"mimeType":"image/png",
			"name":"Metal_normal",
			"uri":"Metal_normal.png"
		},
		{
			"mimeType":"image/png",
			"name":"Metal_baseColor",
			"uri":"Metal_baseColor.png"
		},
		{
			"mimeType":"image/png",
			"name":"Metal_metallicRoughness",
			"uri":"Metal_metallicRoughness.png"
		},
		{
			"mimeType":"image/png",
			"name":"material_normal",
			"uri":"material_normal.png"
		},
		{
			"mimeType":"image/png",
			"name":"material_baseColor",
			"uri":"material_baseColor.png"
		},
		{
			"mimeType":"image/png",
			"name":"material_metallicRoughness",
			"uri":"material_metallicRoughness.png"
		},
		{
			"mimeType":"image/png",
			"name":"material_5_normal",
			"uri":"material_5_normal.png"
		},
		{
			"mimeType":"image/png",
			"name":"material_5_baseColor",
			"uri":"material_5_baseColor.png"
		},
		{
			"mimeType":"image/png",
			"name":"material_5_metallicRoughness",
			"uri":"material_5_metallicRoughness.png"
		},
		{
			"mimeType":"image/png",
			"name":"material_6_normal",
			"uri":"material_6_normal.png"
		},
		{
			"mimeType":"image/png",
			"name":"material_6_baseColor",
			"uri":"material_6_baseColor.png"
		},
		{
			"mimeType":"image/png",
			"name":"material_6_metallicRoughness",
			"uri":"material_6_metallicRoughness.png"
		},
		{
			"mimeType":"image/png",
			"name":"Panel_normal",
			"uri":"Panel_normal.png"
		},
		{
			"mimeType":"image/png",
			"name":"Panel_baseColor",
			"uri":"Panel_baseColor.png"
		},
		{
			"mimeType":"image/png",
			"name":"Panel_metallicRoughness",
			"uri":"Panel_metallicRoughness.png"
		},
		{
			"mimeType":"image/png",
			"name":"material_8_normal",
			"uri":"material_8_normal.png"
		},
		{
			"mimeType":"image/png",
			"name":"material_8_baseColor",
			"uri":"material_8_baseColor.png"
		},
		{
			"mimeType":"image/png",
			"name":"material_8_metallicRoughness",
			"uri":"material_8_metallicRoughness.png"
		},
		{
			"mimeType":"image/png",
			"name":"Main_normal",
			"uri":"Main_normal.png"
		},
		{
			"mimeType":"image/png",
			"name":"Main_baseColor",
			"uri":"Main_baseColor.png"
		},
		{
			"mimeType":"image/png",
			"name":"Main_metallicRoughness",
			"uri":"Main_metallicRoughness.png"
		},
		{
			"mimeType":"image/png",
			"name":"Glass_normal",
			"uri":"Glass_normal.png"
		},
		{
			"mimeType":"image/png",
			"name":"Glass_baseColor",
			"uri":"Glass_baseColor.png"
		},
		{
			"mimeType":"image/png",
			"name":"Glass_metallicRoughness",
			"uri":"Glass_metallicRoughness.png"
		}
	],
	"accessors":[
		{
			"bufferView":0,
			"componentType":5126,
			"count":338,
			"max":[
				109.22102355957031,
				121.95950317382812,
				56.6699333190918
			],
			"min":[
				-109.22103881835938,
				-31.10158920288086,
				-82.8510513305664
			],
			"type":"VEC3"
		},
		{
			"bufferView":1,
			"componentType":5126,
			"count":338,
			"type":"VEC3"
		},
		{
			"bufferView":2,
			"componentType":5126,
			"count":338,
			"type":"VEC2"
		},
		{
			"bufferView":3,
			"componentType":5126,
			"count":338,
			"type":"VEC2"
		},
		{
			"bufferView":4,
			"componentType":5126,
			"count":338,
			"type":"VEC2"
		},
		{
			"bufferView":5,
			"componentType":5126,
			"count":338,
			"type":"VEC2"
		},
		{
			"bufferView":6,
			"componentType":5126,
			"count":338,
			"type":"VEC2"
		},
		{
			"bufferView":7,
			"componentType":5126,
			"count":338,
			"type":"VEC2"
		},
		{
			"bufferView":8,
			"componentType":5126,
			"count":338,
			"type":"VEC2"
		},
		{
			"bufferView":9,
			"componentType":5126,
			"count":338,
			"type":"VEC2"
		},
		{
			"bufferView":10,
			"componentType":5123,
			"count":1188,
			"type":"SCALAR"
		},
		{
			"bufferView":11,
			"componentType":5126,
			"count":8726,
			"max":[
				145.88108825683594,
				153.3514862060547,
				213.8950958251953
			],
			"min":[
				-145.88113403320312,
				-53.88716506958008,
				-54.270896911621094
			],
			"type":"VEC3"
		},
		{
			"bufferView":12,
			"componentType":5126,
			"count":8726,
			"type":"VEC3"
		},
		{
			"bufferView":13,
			"componentType":5126,
			"count":8726,
			"type":"VEC2"
		},
		{
			"bufferView":14,
			"componentType":5126,
			"count":8726,
			"type":"VEC2"
		},
		{
			"bufferView":15,
			"componentType":5126,
			"count":8726,
			"type":"VEC2"
		},
		{
			"bufferView":16,
			"componentType":5126,
			"count":8726,
			"type":"VEC2"
		},
		{
			"bufferView":17,
			"componentType":5126,
			"count":8726,
			"type":"VEC2"
		},
		{
			"bufferView":18,
			"componentType":5126,
			"count":8726,
			"type":"VEC2"
		},
		{
			"bufferView":19,
			"componentType":5126,
			"count":8726,
			"type":"VEC2"
		},
		{
			"bufferView":20,
			"componentType":5126,
			"count":8726,
			"type":"VEC2"
		},
		{
			"bufferView":21,
			"componentType":5123,
			"count":19512,
			"type":"SCALAR"
		},
		{
			"bufferView":22,
			"componentType":5126,
			"count":2136,
			"max":[
				276.9354553222656,
				260.6321716308594,
				388.05120849609375
			],
			"min":[
				-277.1443786621094,
				-51.25734329223633,
				0.13910913467407227
			],
			"type":"VEC3"
		},
		{
			"bufferView":23,
			"componentType":5126,
			"count":2136,
			"type":"VEC3"
		},
		{
			"bufferView":24,
			"componentType":5126,
			"count":2136,
			"type":"VEC2"
		},
		{
			"bufferView":25,
			"componentType":5126,
			"count":2136,
			"type":"VEC2"
		},
		{
			"bufferView":26,
			"componentType":5126,
			"count":2136,
			"type":"VEC2"
		},
		{
			"bufferView":27,
			"componentType":5126,
			"count":2136,
			"type":"VEC2"
		},
		{
			"bufferView":28,
			"componentType":5126,
			"count":2136,
			"type":"VEC2"
		},
		{
			"bufferView":29,
			"componentType":5126,
			"count":2136,
			"type":"VEC2"
		},
		{
			"bufferView":30,
			"componentType":5126,
			"count":2136,
			"type":"VEC2"
		},
		{
			"bufferView":31,
			"componentType":5126,
			"count":2136,
			"type":"VEC2"
		},
		{
			"bufferView":32,
			"componentType":5123,
			"count":5496,
			"type":"SCALAR"
		},
		{
			"bufferView":33,
			"componentType":5126,
			"count":213,
			"max":[
				67.52145385742188,
				108.08869934082031,
				169.90130615234375
			],
			"min":[
				-67.52141571044922,
				-112.59223937988281,
				-12.535064697265625
			],
			"type":"VEC3"
		},
		{
			"bufferView":34,
			"componentType":5126,
			"count":213,
			"type":"VEC3"
		},
		{
			"bufferView":35,
			"componentType":5126,
			"count":213,
			"type":"VEC2"
		},
		{
			"bufferView":36,
			"componentType":5126,
			"count":213,
			"type":"VEC2"
		},
		{
			"bufferView":37,
			"componentType":5126,
			"count":213,
			"type":"VEC2"
		},
		{
			"bufferView":38,
			"componentType":5126,
			"count":213,
			"type":"VEC2"
		},
		{
			"bufferView":39,
			"componentType":5126,
			"count":213,
			"type":"VEC2"
		},
		{
			"bufferView":40,
			"componentType":5126,
			"count":213,
			"type":"VEC2"
		},
		{
			"bufferView":41,
			"componentType":5126,
			"count":213,
			"type":"VEC2"
		},
		{
			"bufferView":42,
			"componentType":5126,
			"count":213,
			"type":"VEC2"
		},
		{
			"bufferView":43,
			"componentType":5123,
			"count":408,
			"type":"SCALAR"
		},
		{
			"bufferView":44,
			"componentType":5126,
			"count":2133,
			"max":[
				189.3768310546875,
				-47.33290100097656,
				258.73077392578125
			],
			"min":[
				-189.37681579589844,
				-124.92359924316406,
				-172.03477478027344
			],
			"type":"VEC3"
		},
		{
			"bufferView":45,
			"componentType":5126,
			"count":2133,
			"type":"VEC3"
		},
		{
			"bufferView":46,
			"componentType":5126,
			"count":2133,
			"type":"VEC2"
		},
		{
			"bufferView":47,
			"componentType":5126,
			"count":2133,
			"type":"VEC2"
		},
		{
			"bufferView":48,
			"componentType":5126,
			"count":2133,
			"type":"VEC2"
		},
		{
			"bufferView":49,
			"componentType":5126,
			"count":2133,
			"type":"VEC2"
		},
		{
			"bufferView":50,
			"componentType":5126,
			"count":2133,
			"type":"VEC2"
		},
		{
			"bufferView":51,
			"componentType":5126,
			"count":2133,
			"type":"VEC2"
		},
		{
			"bufferView":52,
			"componentType":5126,
			"count":2133,
			"type":"VEC2"
		},
		{
			"bufferView":53,
			"componentType":5126,
			"count":2133,
			"type":"VEC2"
		},
		{
			"bufferView":54,
			"componentType":5123,
			"count":8016,
			"type":"SCALAR"
		},
		{
			"bufferView":55,
			"componentType":5126,
			"count":4339,
			"max":[
				183.82498168945312,
				18.646886825561523,
				102.30638885498047
			],
			"min":[
				-183.8249969482422,
				-117.59564208984375,
				-183.13739013671875
			],
			"type":"VEC3"
		},
		{
			"bufferView":56,
			"componentType":5126,
			"count":4339,
			"type":"VEC3"
		},
		{
			"bufferView":57,
			"componentType":5126,
			"count":4339,
			"type":"VEC2"
		},
		{
			"bufferView":58,
			"componentType":5126,
			"count":4339,
			"type":"VEC2"
		},
		{
			"bufferView":59,
			"componentType":5126,
			"count":4339,
			"type":"VEC2"
		},
		{
			"bufferView":60,
			"componentType":5126,
			"count":4339,
			"type":"VEC2"
		},
		{
			"bufferView":61,
			"componentType":5126,
			"count":4339,
			"type":"VEC2"
		},
		{
			"bufferView":62,
			"componentType":5126,
			"count":4339,
			"type":"VEC2"
		},
		{
			"bufferView":63,
			"componentType":5126,
			"count":4339,
			"type":"VEC2"
		},
		{
			"bufferView":64,
			"componentType":5126,
			"count":4339,
			"type":"VEC2"
		},
		{
			"bufferView":65,
			"componentType":5123,
			"count":12432,
			"type":"SCALAR"
		},
		{
			"bufferView":66,
			"componentType":5126,
			"count":6097,
			"max":[
				88.40044403076172,
				109.958984375,
				63.32170486450195
			],
			"min":[
				-88.40045166015625,
				-39.60599899291992,
				-97.60136413574219
			],
			"type":"VEC3"
		},
		{
			"bufferView":67,
			"componentType":5126,
			"count":6097,
			"type":"VEC3"
		},
		{
			"bufferView":68,
			"componentType":5126,
			"count":6097,
			"type":"VEC2"
		},
		{
			"bufferView":69,
			"componentType":5126,
			"count":6097,
			"type":"VEC2"
		},
		{
			"bufferView":70,
			"componentType":5126,
			"count":6097,
			"type":"VEC2"
		},
		{
			"bufferView":71,
			"componentType":5126,
			"count":6097,
			"type":"VEC2"
		},
		{
			"bufferView":72,
			"componentType":5126,
			"count":6097,
			"type":"VEC2"
		},
		{
			"bufferView":73,
			"componentType":5126,
			"count":6097,
			"type":"VEC2"
		},
		{
			"bufferView":74,
			"componentType":5126,
			"count":6097,
			"type":"VEC2"
		},
		{
			"bufferView":75,
			"componentType":5126,
			"count":6097,
			"type":"VEC2"
		},
		{
			"bufferView":76,
			"componentType":5123,
			"count":18048,
			"type":"SCALAR"
		},
		{
			"bufferView":77,
			"componentType":5126,
			"count":280,
			"max":[
				51.335079193115234,
				141.58761596679688,
				327.1125183105469
			],
			"min":[
				-57.585845947265625,
				19.604572296142578,
				134.8760528564453
			],
			"type":"VEC3"
		},
		{
			"bufferView":78,
			"componentType":5126,
			"count":280,
			"type":"VEC3"
		},
		{
			"bufferView":79,
			"componentType":5126,
			"count":280,
			"type":"VEC2"
		},
		{
			"bufferView":80,
			"componentType":5126,
			"count":280,
			"type":"VEC2"
		},
		{
			"bufferView":81,
			"componentType":5126,
			"count":280,
			"type":"VEC2"
		},
		{
			"bufferView":82,
			"componentType":5126,
			"count":280,
			"type":"VEC2"
		},
		{
			"bufferView":83,
			"componentType":5126,
			"count":280,
			"type":"VEC2"
		},
		{
			"bufferView":84,
			"componentType":5126,
			"count":280,
			"type":"VEC2"
		},
		{
			"bufferView":85,
			"componentType":5126,
			"count":280,
			"type":"VEC2"
		},
		{
			"bufferView":86,
			"componentType":5126,
			"count":280,
			"type":"VEC2"
		},
		{
			"bufferView":87,
			"componentType":5123,
			"count":816,
			"type":"SCALAR"
		},
		{
			"bufferView":88,
			"componentType":5126,
			"count":1739,
			"max":[
				166.86239624023438,
				124.76522827148438,
				284.8424987792969
			],
			"min":[
				-166.86241149902344,
				-120.77574157714844,
				-183.13739013671875
			],
			"type":"VEC3"
		},
		{
			"bufferView":89,
			"componentType":5126,
			"count":1739,
			"type":"VEC3"
		},
		{
			"bufferView":90,
			"componentType":5126,
			"count":1739,
			"type":"VEC2"
		},
		{
			"bufferView":91,
			"componentType":5126,
			"count":1739,
			"type":"VEC2"
		},
		{
			"bufferView":92,
			"componentType":5126,
			"count":1739,
			"type":"VEC2"
		},
		{
			"bufferView":93,
			"componentType":5126,
			"count":1739,
			"type":"VEC2"
		},
		{
			"bufferView":94,
			"componentType":5126,
			"count":1739,
			"type":"VEC2"
		},
		{
			"bufferView":95,
			"componentType":5126,
			"count":1739,
			"type":"VEC2"
		},
		{
			"bufferView":96,
			"componentType":5126,
			"count":1739,
			"type":"VEC2"
		},
		{
			"bufferView":97,
			"componentType":5126,
			"count":1739,
			"type":"VEC2"
		},
		{
			"bufferView":98,
			"componentType":5123,
			"count":5364,
			"type":"SCALAR"
		},
		{
			"bufferView":99,
			"componentType":5126,
			"count":792,
			"max":[
				97.16012573242188,
				159.60777282714844,
				85.5185317993164
			],
			"min":[
				-97.16011047363281,
				-62.6263542175293,
				-113.98424530029297
			],
			"type":"VEC3"
		},
		{
			"bufferView":100,
			"componentType":5126,
			"count":792,
			"type":"VEC3"
		},
		{
			"bufferView":101,
			"componentType":5126,
			"count":792,
			"type":"VEC2"
		},
		{
			"bufferView":102,
			"componentType":5126,
			"count":792,
			"type":"VEC2"
		},
		{
			"bufferView":103,
			"componentType":5126,
			"count":792,
			"type":"VEC2"
		},
		{
			"bufferView":104,
			"componentType":5126,
			"count":792,
			"type":"VEC2"
		},
		{
			"bufferView":105,
			"componentType":5126,
			"count":792,
			"type":"VEC2"
		},
		{
			"bufferView":106,
			"componentType":5126,
			"count":792,
			"type":"VEC2"
		},
		{
			"bufferView":107,
			"componentType":5126,
			"count":792,
			"type":"VEC2"
		},
		{
			"bufferView":108,
			"componentType":5126,
			"count":792,
			"type":"VEC2"
		},
		{
			"bufferView":109,
			"componentType":5123,
			"count":3456,
			"type":"SCALAR"
		}
	],
	"bufferViews":[
		{
			"buffer":0,
			"byteLength":4056,
			"byteOffset":0,
			"target":34962
		},
		{
			"buffer":0,
			"byteLength":4056,
			"byteOffset":4056,
			"target":34962
		},
		{
			"buffer":0,
			"byteLength":2704,
			"byteOffset":8112,
			"target":34962
		},
		{
			"buffer":0,
			"byteLength":2704,
			"byteOffset":10816,
			"target":34962
		},
		{
			"buffer":0,
			"byteLength":2704,
			"byteOffset":13520,
			"target":34962
		},
		{
			"buffer":0,
			"byteLength":2704,
			"byteOffset":16224,
			"target":34962
		},
		{
			"buffer":0,
			"byteLength":2704,
			"byteOffset":18928,
			"target":34962
		},
		{
			"buffer":0,
			"byteLength":2704,
			"byteOffset":21632,
			"target":34962
		},
		{
			"buffer":0,
			"byteLength":2704,
			"byteOffset":24336,
			"target":34962
		},
		{
			"buffer":0,
			"byteLength":2704,
			"byteOffset":27040,
			"target":34962
		},
		{
			"buffer":0,
			"byteLength":2376,
			"byteOffset":29744,
			"target":34963
		},
		{
			"buffer":0,
			"byteLength":104712,
			"byteOffset":32120,
			"target":34962
		},
		{
			"buffer":0,
			"byteLength":104712,
			"byteOffset":136832,
			"target":34962
		},
		{
			"buffer":0,
			"byteLength":69808,
			"byteOffset":241544,
			"target":34962
		},
		{
			"buffer":0,
			"byteLength":69808,
			"byteOffset":311352,
			"target":34962
		},
		{
			"buffer":0,
			"byteLength":69808,
			"byteOffset":381160,
			"target":34962
		},
		{
			"buffer":0,
			"byteLength":69808,
			"byteOffset":450968,
			"target":34962
		},
		{
			"buffer":0,
			"byteLength":69808,
			"byteOffset":520776,
			"target":34962
		},
		{
			"buffer":0,
			"byteLength":69808,
			"byteOffset":590584,
			"target":34962
		},
		{
			"buffer":0,
			"byteLength":69808,
			"byteOffset":660392,
			"target":34962
		},
		{
			"buffer":0,
			"byteLength":69808,
			"byteOffset":730200,
			"target":34962
		},
		{
			"buffer":0,
			"byteLength":39024,
			"byteOffset":800008,
			"target":34963
		},
		{
			"buffer":0,
			"byteLength":25632,
			"byteOffset":839032,
			"target":34962
		},
		{
			"buffer":0,
			"byteLength":25632,
			"byteOffset":864664,
			"target":34962
		},
		{
			"buffer":0,
			"byteLength":17088,
			"byteOffset":890296,
			"target":34962
		},
		{
			"buffer":0,
			"byteLength":17088,
			"byteOffset":907384,
			"target":34962
		},
		{
			"buffer":0,
			"byteLength":17088,
			"byteOffset":924472,
			"target":34962
		},
		{
			"buffer":0,
			"byteLength":17088,
			"byteOffset":941560,
			"target":34962
		},
		{
			"buffer":0,
			"byteLength":17088,
			"byteOffset":958648,
			"target":34962
		},
		{
			"buffer":0,
			"byteLength":17088,
			"byteOffset":975736,
			"target":34962
		},
		{
			"buffer":0,
			"byteLength":17088,
			"byteOffset":992824,
			"target":34962
		},
		{
			"buffer":0,
			"byteLength":17088,
			"byteOffset":1009912,
			"target":34962
		},
		{
			"buffer":0,
			"byteLength":10992,
			"byteOffset":1027000,
			"target":34963
		},
		{
			"buffer":0,
			"byteLength":2556,
			"byteOffset":1037992,
			"target":34962
		},
		{
			"buffer":0,
			"byteLength":2556,
			"byteOffset":1040548,
			"target":34962
		},
		{
			"buffer":0,
			"byteLength":1704,
			"byteOffset":1043104,
			"target":34962
		},
		{
			"buffer":0,
			"byteLength":1704,
			"byteOffset":1044808,
			"target":34962
		},
		{
			"buffer":0,
			"byteLength":1704,
			"byteOffset":1046512,
			"target":34962
		},
		{
			"buffer":0,
			"byteLength":1704,
			"byteOffset":1048216,
			"target":34962
		},
		{
			"buffer":0,
			"byteLength":1704,
			"byteOffset":1049920,
			"target":34962
		},
		{
			"buffer":0,
			"byteLength":1704,
			"byteOffset":1051624,
			"target":34962
		},
		{
			"buffer":0,
			"byteLength":1704,
			"byteOffset":1053328,
			"target":34962
		},
		{
			"buffer":0,
			"byteLength":1704,
			"byteOffset":1055032,
			"target":34962
		},
		{
			"buffer":0,
			"byteLength":816,
			"byteOffset":1056736,
			"target":34963
		},
		{
			"buffer":0,
			"byteLength":25596,
			"byteOffset":1057552,
			"target":34962
		},
		{
			"buffer":0,
			"byteLength":25596,
			"byteOffset":1083148,
			"target":34962
		},
		{
			"buffer":0,
			"byteLength":17064,
			"byteOffset":1108744,
			"target":34962
		},
		{
			"buffer":0,
			"byteLength":17064,
			"byteOffset":1125808,
			"target":34962
		},
		{
			"buffer":0,
			"byteLength":17064,
			"byteOffset":1142872,
			"target":34962
		},
		{
			"buffer":0,
			"byteLength":17064,
			"byteOffset":1159936,
			"target":34962
		},
		{
			"buffer":0,
			"byteLength":17064,
			"byteOffset":1177000,
			"target":34962
		},
		{
			"buffer":0,
			"byteLength":17064,
			"byteOffset":1194064,
			"target":34962
		},
		{
			"buffer":0,
			"byteLength":17064,
			"byteOffset":1211128,
			"target":34962
		},
		{
			"buffer":0,
			"byteLength":17064,
			"byteOffset":1228192,
			"target":34962
		},
		{
			"buffer":0,
			"byteLength":16032,
			"byteOffset":1245256,
			"target":34963
		},
		{
			"buffer":0,
			"byteLength":52068,
			"byteOffset":1261288,
			"target":34962
		},
		{
			"buffer":0,
			"byteLength":52068,
			"byteOffset":1313356,
			"target":34962
		},
		{
			"buffer":0,
			"byteLength":34712,
			"byteOffset":1365424,
			"target":34962
		},
		{
			"buffer":0,
			"byteLength":34712,
			"byteOffset":1400136,
			"target":34962
		},
		{
			"buffer":0,
			"byteLength":34712,
			"byteOffset":1434848,
			"target":34962
		},
		{
			"buffer":0,
			"byteLength":34712,
			"byteOffset":1469560,
			"target":34962
		},
		{
			"buffer":0,
			"byteLength":34712,
			"byteOffset":1504272,
			"target":34962
		},
		{
			"buffer":0,
			"byteLength":34712,
			"byteOffset":1538984,
			"target":34962
		},
		{
			"buffer":0,
			"byteLength":34712,
			"byteOffset":1573696,
			"target":34962
		},
		{
			"buffer":0,
			"byteLength":34712,
			"byteOffset":1608408,
			"target":34962
		},
		{
			"buffer":0,
			"byteLength":24864,
			"byteOffset":1643120,
			"target":34963
		},
		{
			"buffer":0,
			"byteLength":73164,
			"byteOffset":1667984,
			"target":34962
		},
		{
			"buffer":0,
			"byteLength":73164,
			"byteOffset":1741148,
			"target":34962
		},
		{
			"buffer":0,
			"byteLength":48776,
			"byteOffset":1814312,
			"target":34962
		},
		{
			"buffer":0,
			"byteLength":48776,
			"byteOffset":1863088,
			"target":34962
		},
		{
			"buffer":0,
			"byteLength":48776,
			"byteOffset":1911864,
			"target":34962
		},
		{
			"buffer":0,
			"byteLength":48776,
			"byteOffset":1960640,
			"target":34962
		},
		{
			"buffer":0,
			"byteLength":48776,
			"byteOffset":2009416,
			"target":34962
		},
		{
			"buffer":0,
			"byteLength":48776,
			"byteOffset":2058192,
			"target":34962
		},
		{
			"buffer":0,
			"byteLength":48776,
			"byteOffset":2106968,
			"target":34962
		},
		{
			"buffer":0,
			"byteLength":48776,
			"byteOffset":2155744,
			"target":34962
		},
		{
			"buffer":0,
			"byteLength":36096,
			"byteOffset":2204520,
			"target":34963
		},
		{
			"buffer":0,
			"byteLength":3360,
			"byteOffset":2240616,
			"target":34962
		},
		{
			"buffer":0,
			"byteLength":3360,
			"byteOffset":2243976,
			"target":34962
		},
		{
			"buffer":0,
			"byteLength":2240,
			"byteOffset":2247336,
			"target":34962
		},
		{
			"buffer":0,
			"byteLength":2240,
			"byteOffset":2249576,
			"target":34962
		},
		{
			"buffer":0,
			"byteLength":2240,
			"byteOffset":2251816,
			"target":34962
		},
		{
			"buffer":0,
			"byteLength":2240,
			"byteOffset":2254056,
			"target":34962
		},
		{
			"buffer":0,
			"byteLength":2240,
			"byteOffset":2256296,
			"target":34962
		},
		{
			"buffer":0,
			"byteLength":2240,
			"byteOffset":2258536,
			"target":34962
		},
		{
			"buffer":0,
			"byteLength":2240,
			"byteOffset":2260776,
			"target":34962
		},
		{
			"buffer":0,
			"byteLength":2240,
			"byteOffset":2263016,
			"target":34962
		},
		{
			"buffer":0,
			"byteLength":1632,
			"byteOffset":2265256,
			"target":34963
		},
		{
			"buffer":0,
			"byteLength":20868,
			"byteOffset":2266888,
			"target":34962
		},
		{
			"buffer":0,
			"byteLength":20868,
			"byteOffset":2287756,
			"target":34962
		},
		{
			"buffer":0,
			"byteLength":13912,
			"byteOffset":2308624,
			"target":34962
		},
		{
			"buffer":0,
			"byteLength":13912,
			"byteOffset":2322536,
			"target":34962
		},
		{
			"buffer":0,
			"byteLength":13912,
			"byteOffset":2336448,
			"target":34962
		},
		{
			"buffer":0,
			"byteLength":13912,
			"byteOffset":2350360,
			"target":34962
		},
		{
			"buffer":0,
			"byteLength":13912,
			"byteOffset":2364272,
			"target":34962
		},
		{
			"buffer":0,
			"byteLength":13912,
			"byteOffset":2378184,
			"target":34962
		},
		{
			"buffer":0,
			"byteLength":13912,
			"byteOffset":2392096,
			"target":34962
		},
		{
			"buffer":0,
			"byteLength":13912,
			"byteOffset":2406008,
			"target":34962
		},
		{
			"buffer":0,
			"byteLength":10728,
			"byteOffset":2419920,
			"target":34963
		},
		{
			"buffer":0,
			"byteLength":9504,
			"byteOffset":2430648,
			"target":34962
		},
		{
			"buffer":0,
			"byteLength":9504,
			"byteOffset":2440152,
			"target":34962
		},
		{
			"buffer":0,
			"byteLength":6336,
			"byteOffset":2449656,
			"target":34962
		},
		{
			"buffer":0,
			"byteLength":6336,
			"byteOffset":2455992,
			"target":34962
		},
		{
			"buffer":0,
			"byteLength":6336,
			"byteOffset":2462328,
			"target":34962
		},
		{
			"buffer":0,
			"byteLength":6336,
			"byteOffset":2468664,
			"target":34962
		},
		{
			"buffer":0,
			"byteLength":6336,
			"byteOffset":2475000,
			"target":34962
		},
		{
			"buffer":0,
			"byteLength":6336,
			"byteOffset":2481336,
			"target":34962
		},
		{
			"buffer":0,
			"byteLength":6336,
			"byteOffset":2487672,
			"target":34962
		},
		{
			"buffer":0,
			"byteLength":6336,
			"byteOffset":2494008,
			"target":34962
		},
		{
			"buffer":0,
			"byteLength":6912,
			"byteOffset":2500344,
			"target":34963
		}
	],
	"samplers":[
		{
			"magFilter":9729,
			"minFilter":9987
		}
	],
	"buffers":[
		{
			"byteLength":2507256,
			"uri":"scene.bin"
		}
	]
}
